<?xml version="1.0" encoding="utf-8"?>
<!-- Generator: Adobe Illustrator 25.1.0, SVG Export Plug-In . SVG Version: 6.00 Build 0)  -->
<svg version="1.1" xmlns="http://www.w3.org/2000/svg" xmlns:xlink="http://www.w3.org/1999/xlink" x="0px" y="0px"
	 viewBox="0 0 631.5 593.9" style="enable-background:new 0 0 631.5 593.9;" xml:space="preserve">
<style type="text/css">
	.st0{fill:#CCCCCC;}
	.st1{fill:#FFFFFF;}
	.st2{fill:#FFB8B8;}
	.st3{fill:#2F2E41;}
	.st4{fill:#3F3D56;}
	.st5{fill:#6C63FF;}
	.st6{fill:#E6E6E6;}
</style>
<g id="People">
	<g id="Layer_36">
		<path class="st0" d="M506.1,459.9c-14.4,0-26-11.6-26-26s11.6-26,26-26s26,11.6,26,26C532.1,448.3,520.4,459.9,506.1,459.9z"/>
	</g>
	<g id="Layer_35">
		<path class="st1" d="M518.1,432.9h-11v-12.5c0-0.6-0.4-1-1-1s-1,0.4-1,1v12.5h-11c-0.6,0-1,0.4-1,1s0.4,1,1,1h11v12.5
			c0,0.6,0.4,1,1,1s1-0.4,1-1v-12.5h11c0.6,0,1-0.4,1-1S518.6,432.9,518.1,432.9z"/>
	</g>
	<g id="Layer_34">
		<polygon class="st2" points="606.2,581.8 594.8,581.8 589.4,537.7 606.2,537.7 		"/>
	</g>
	<g id="Layer_33">
		<path class="st3" d="M586.6,578.5h22l0,0v13.9l0,0h-35.9l0,0l0,0C572.7,584.7,579,578.5,586.6,578.5
			C586.6,578.5,586.6,578.5,586.6,578.5z"/>
	</g>
	<g id="Layer_32">
		<polygon class="st2" points="560.7,581.8 549.3,581.8 543.9,537.7 560.7,537.7 		"/>
	</g>
	<g id="Layer_31">
		<path class="st3" d="M541.1,578.5h22l0,0v13.9l0,0h-35.9l0,0l0,0C527.2,584.7,533.5,578.5,541.1,578.5
			C541.1,578.5,541.1,578.5,541.1,578.5z"/>
	</g>
	<g id="Layer_30">
		<path class="st2" d="M615,429.3c-3.5-3.8-3.2-9.8,0.7-13.2c0.4-0.4,0.9-0.7,1.3-1l-3.5-21.1l12.3-5.3l4.6,29.9
			c2.5,4.6,0.7,10.3-3.8,12.8C622.7,433.4,617.9,432.6,615,429.3z"/>
	</g>
	<g id="Layer_29">
		<path class="st2" d="M518.6,419.3c4.1-3.2,4.8-9.1,1.5-13.2c-0.3-0.4-0.7-0.8-1.1-1.2l7-20.3l-11.3-7.2l-9.5,28.7
			c-3.2,4.1-2.4,10,1.7,13.2C510.4,422.1,515.2,422.1,518.6,419.3z"/>
	</g>
	<g id="Layer_28">
		<circle class="st2" cx="577.1" cy="245.5" r="24.6"/>
	</g>
	<g id="Layer_27">
		<path class="st4" d="M517.8,404.2c-0.4,0-0.8-0.1-1.2-0.2l-7.2-2.1c-2.4-0.7-3.8-3.2-3.1-5.6l14.8-52.2l20.6-50.6
			c2-5,6.3-8.3,11.2-8.6c4.5-0.2,8.7,2.2,10.8,6.3l0,0c2.2,4.3,2.4,9.4,0.4,13.8l-23.4,51.2L522,401.4
			C521.3,403.1,519.7,404.2,517.8,404.2z"/>
	</g>
	<g id="Layer_26">
		<path class="st3" d="M591,266.1l-13.6,0.2c-5,0.1-9.2-3.9-9.3-8.9c0-0.9,0.1-1.8,0.4-2.7c0.3-1,0.5-2,0.7-3
			c0.2-1.1,0.2-2.2,0.1-3.4c-0.2-2.7-2.6-4.8-5.3-4.6c-1.9,0.1-3.5,1.4-4.2,3.1l0,0c-2.3,0-7.2-0.7-9.5-0.7
			c-4.9-12.5,5.7-28.8,17.2-35c11.7-6.3,26.8,0.1,31.2,13.2c6.2,0.1,11.2,6.2,12,13.1s-2,14.1-6.4,19.3
			C599.9,262.2,594.2,266.1,591,266.1z"/>
	</g>
	<g id="Layer_25">
		<path class="st3" d="M546.1,577.7c-2.3,0-4.2-1.7-4.5-4l-5.1-170.2l63.8,4.5l0,0.4c14.4,120.7,9.5,162.4,9.4,162.8
			c-0.1,2.5-2.3,4.4-4.7,4.2c-0.1,0-0.2,0-0.3,0l-14.1,0.3c-2.2-0.2-3.9-2.1-4-4.3l-13.2-123.3c-0.2-0.7-0.8-1.1-1.5-1.1
			c-0.7,0-1.3,0.5-1.4,1.2L565.6,572c0.1,2.4-1.7,4.4-4,4.7l-14.9,1C546.4,577.7,546.3,577.7,546.1,577.7z"/>
	</g>
	<g id="Layer_24">
		<path class="st4" d="M572.6,423.8c-0.4,0-0.8,0-1.1,0c-18.3-0.6-32.7-14.4-36.7-18.7c-1-1.1-1.4-2.6-1.1-4.1l10.6-44.8l-2.8-38.9
			c-0.9-10.9,2.9-21.7,10.5-29.6c6.3-6.7,15.2-10.3,24.4-9.9c17.9,0.9,31.9,16.8,32.1,36.3c0.2,30.2-0.7,32.3-1,33
			c-8.9,20.8-4,50-2.3,58.4c0.3,1.5-0.2,3.1-1.3,4.2C594,419,583.5,423.8,572.6,423.8z"/>
	</g>
	<g id="Layer_23">
		<path class="st4" d="M618.7,412.4c-2.1,0-3.9-1.5-4.4-3.5l-10.9-47.6L588.7,307c-1.3-4.7-0.3-9.7,2.6-13.5
			c2.7-3.6,7.2-5.4,11.7-4.4c4.7,1.1,8.4,5,9.6,10.3l12,53.2l6,53.9c0.3,2.5-1.5,4.7-4,5l-7.4,0.8
			C619,412.4,618.8,412.4,618.7,412.4z"/>
	</g>
	<g id="Layer_22">
		<path class="st2" d="M30.8,417.5c4.9-3.4,6.1-10,2.8-14.9c-0.4-0.5-0.8-1-1.2-1.5l4.2-93l-21.2,2.4l1.2,91
			c-4,4.5-3.6,11.3,0.9,15.2C21.2,420,26.7,420.4,30.8,417.5L30.8,417.5z"/>
	</g>
	<g id="Layer_21">
		<polygon class="st2" points="69.5,575 81.6,577.1 93.5,531.5 77.7,528.4 		"/>
	</g>
	<g id="Layer_20">
		<path class="st3" d="M102.9,592.4L65,585.7l0,0l2.6-14.7l0,0l23.3,4.1C98.9,576.6,104.3,584.3,102.9,592.4L102.9,592.4
			L102.9,592.4z"/>
	</g>
	<g id="Layer_19">
		<polygon class="st2" points="36.4,581 48.7,581 54.5,533.7 36.4,533.7 		"/>
	</g>
	<g id="Layer_18">
		<path class="st3" d="M72.3,592.4l-38.5,0l0,0l0-14.9l0,0l23.6,0C65.6,577.5,72.3,584.2,72.3,592.4L72.3,592.4L72.3,592.4
			L72.3,592.4z"/>
	</g>
	<g id="Layer_17">
		<path class="st3" d="M88.5,568.1c-0.2,0-0.4,0-0.6,0l-14.4-1.2c-2.7-0.3-4.6-2.7-4.3-5.4c0-0.1,0-0.2,0-0.2l13.3-74.7l-9-47.5
			c-0.2-0.9-1-1.5-1.9-1.3c-0.7,0.1-1.3,0.7-1.3,1.5L59.1,565.8c-0.3,2.6-2.6,4.6-5.2,4.4l-13.6-0.5c-2.5-0.2-4.4-2.2-4.5-4.6
			l-0.9-151.8l70.5-8.8l4.9,76l0,0.1l-17,83.7C92.8,566.5,90.8,568.1,88.5,568.1z"/>
	</g>
	<g id="Layer_16">
		<circle class="st2" cx="58.1" cy="223.3" r="24.6"/>
	</g>
	<g id="Layer_15">
		<path class="st5" d="M81.3,424.4c-3.8,0-7.6-1.1-10.9-3.1c-11.9-7.4-25.4-4.5-32.4-2.1c-1.4,0.5-3,0.3-4.2-0.5
			c-1.2-0.8-2.1-2.1-2.2-3.6L18.8,301.6c-2.1-19,9.3-36.9,27.3-42.6l0,0c0.7-0.2,1.4-0.4,2.1-0.6c11.3-3.1,23.4-1,33,5.7
			c9.8,6.8,16.1,17.5,17.2,29.4L109,407.9c0.1,1.5-0.4,3-1.5,4C103.7,415.4,92.8,424.4,81.3,424.4z"/>
	</g>
	<g id="Layer_14">
		<path class="st5" d="M42.5,326l-28.7-3.2c-3.1-0.3-5.4-3.2-5.1-6.3c0-0.3,0.1-0.6,0.2-0.8l7.3-27.8c1-8.7,8.9-15,17.6-13.9
			c8.7,1,14.9,8.8,14,17.5l1.1,28.7c0.1,3.2-2.3,5.8-5.5,5.9C43.1,326,42.8,326,42.5,326L42.5,326z"/>
	</g>
	<g id="Layer_13">
		<path class="st2" d="M108.9,413.5c4.5-3.9,4.9-10.7,1-15.2c-0.4-0.5-0.9-0.9-1.4-1.3l-7.1-92.8l-20.8,4.7l12.2,90.4
			c-3.4,4.9-2.2,11.6,2.7,15C99.7,417.2,105.2,416.8,108.9,413.5z"/>
	</g>
	<g id="Layer_12">
		<path class="st5" d="M72.7,320.1c-1.2-1.1-1.9-2.7-1.8-4.4l1.1-28.7c-1-8.7,5.3-16.6,14-17.5c8.7-1,16.5,5.3,17.5,14l7.3,27.8
			c0.8,3.1-1,6.2-4.1,7c-0.3,0.1-0.5,0.1-0.8,0.2l-28.7,3.2C75.5,321.8,73.9,321.3,72.7,320.1z"/>
	</g>
	<g id="Layer_11">
		<path class="st3" d="M56.7,248.7c-0.4,0-0.9-0.1-1.3-0.2l-0.1,0c-21.6-3.3-26.4-15.8-27.4-21c-1.1-5.4,0.2-10.6,2.9-12.7
			c-1.5-4.8-1.3-9.1,0.7-12.7c3.5-6.3,11.1-8.4,12.1-8.7c6.1-4.5,13.3-1.5,14.6-0.9c11.7-4.3,16.2-0.7,17,0.1c5.2,0.9,8.4,3,9.5,6
			c2,5.7-4.3,12.9-4.6,13.2l-0.1,0.2l-9.4,0.4c-3.5,0.2-6.2,3.1-6,6.7c0,0.2,0,0.4,0.1,0.7l0,0c0.3,1.1,0.6,2.3,1,3.4
			c1.6,5,2.8,9.3,1.3,10.9c-0.7,0.6-1.7,0.8-2.6,0.5c-1.5-0.4-2.5-0.3-3,0.2c-0.8,0.9-0.5,3,0.7,6.1c0.8,2,0.4,4.2-1,5.8
			C59.8,248,58.3,248.7,56.7,248.7z"/>
	</g>
	<g id="Layer_10">
		<path class="st0" d="M141,593.9H1c-0.6,0-1-0.4-1-1s0.4-1,1-1h140c0.6,0,1,0.4,1,1S141.6,593.9,141,593.9z"/>
	</g>
	<g id="Layer_9">
		<path class="st0" d="M629,593.9H489c-0.6,0-1-0.4-1-1s0.4-1,1-1h140c0.6,0,1,0.4,1,1S629.6,593.9,629,593.9z"/>
	</g>
	<g id="Layer_8">
		<path class="st1" d="M428.7,424h-242c-19.3,0-35-15.7-35-35V35c0-19.3,15.7-35,35-35h242c19.3,0,35,15.7,35,35v354
			C463.7,408.3,448,424,428.7,424z"/>
	</g>
</g>
<g id="Line4_1_">
	<path id="Line4" class="st0" d="M390.7,377h-166c-17-0.1-17-25.9,0-26l166,0C407.7,351.1,407.7,376.9,390.7,377z"/>
</g>
<g id="Line3_1_">
	<path id="Line3" class="st0" d="M390.7,329h-166c-17-0.1-17-25.9,0-26l166,0C407.7,303.1,407.7,328.9,390.7,329z"/>
</g>
<g id="Line2_1_">
	<path id="Line2" class="st0" d="M390.7,281h-166c-17-0.1-17-25.9,0-26l166,0C407.7,255.1,407.7,280.9,390.7,281z"/>
</g>
<g id="Line1_1_">
	<path id="Line1" class="st0" d="M390.7,73h-166c-17-0.1-17-25.9,0-26l166,0C407.7,47,407.7,72.9,390.7,73z"/>
</g>
<g id="Screen_1_">
	<path id="Screen" class="st5" d="M387.7,223.8h-160c-9.1,0-16.5-7.4-16.5-16.5v-89.6c0-9.1,7.4-16.5,16.5-16.5h160
		c9.1,0,16.5,7.4,16.5,16.5v89.6C404.2,216.4,396.8,223.8,387.7,223.8z"/>
</g>
<g id="Outline_1_">
	<path id="Outline" class="st6" d="M428.7,424h-242c-19.3,0-35-15.7-35-35V35c0-19.3,15.7-35,35-35h242c19.3,0,35,15.7,35,35v354
		C463.7,408.3,448,424,428.7,424z M186.7,6c-16,0-29,13-29,29v354c0,16,13,29,29,29h242c16,0,29-13,29-29V35c0-16-13-29-29-29H186.7
		z"/>
</g>
</svg>
