<svg xmlns="http://www.w3.org/2000/svg" viewBox="0 0 631.49 593.94">
  <defs>
    <style>
      .cls-1 {
        fill: #ccc;
      }

      .cls-2 {
        fill: #fff;
      }

      .cls-3 {
        fill: #ffb8b8;
      }

      .cls-4 {
        fill: #2f2e41;
      }

      .cls-5 {
        fill: #3f3d56;
      }

      .cls-6 {
        fill: #6c63ff;
      }

      .cls-7 {
        fill: #e6e6e6;
      }
    </style>
  </defs>
  <g id="People">
    <g id="Layer_36" data-name="Layer 36">
      <path class="cls-1" d="M506.09,459.94a26,26,0,1,1,26-26A26,26,0,0,1,506.09,459.94Z" transform="translate(0 0)"/>
    </g>
    <g id="Layer_35" data-name="Layer 35">
      <path class="cls-2" d="M518.09,432.94h-11v-12.5a1,1,0,0,0-2,0v12.5h-11a1,1,0,0,0,0,2h11v12.5a1,1,0,0,0,2,0v-12.5h11a1,1,0,0,0,0-2Z" transform="translate(0 0)"/>
    </g>
    <g id="Layer_34" data-name="Layer 34">
      <polygon class="cls-3" points="606.22 581.78 594.79 581.78 589.35 537.68 606.22 537.68 606.22 581.78"/>
    </g>
    <g id="Layer_33" data-name="Layer 33">
      <path class="cls-4" d="M586.62,578.51h22v13.88H572.74a13.89,13.89,0,0,1,13.88-13.88Z" transform="translate(0 0)"/>
    </g>
    <g id="Layer_32" data-name="Layer 32">
      <polygon class="cls-3" points="560.72 581.78 549.29 581.78 543.85 537.68 560.72 537.68 560.72 581.78"/>
    </g>
    <g id="Layer_31" data-name="Layer 31">
      <path class="cls-4" d="M541.12,578.51h22v13.88H527.24a13.89,13.89,0,0,1,13.88-13.88Z" transform="translate(0 0)"/>
    </g>
    <g id="Layer_30" data-name="Layer 30">
      <path class="cls-3" d="M615,429.33a9.39,9.39,0,0,1,.65-13.25,9.09,9.09,0,0,1,1.32-1L613.46,394l12.32-5.28,4.58,29.91A9.43,9.43,0,0,1,615,429.33Z" transform="translate(0 0)"/>
    </g>
    <g id="Layer_29" data-name="Layer 29">
      <path class="cls-3" d="M518.59,419.34a9.38,9.38,0,0,0,1.54-13.17A9.21,9.21,0,0,0,519,405l7-20.26-11.28-7.24-9.46,28.74a9.43,9.43,0,0,0,13.35,13.13Z" transform="translate(0 0)"/>
    </g>
    <g id="Layer_28" data-name="Layer 28">
      <circle class="cls-3" cx="577.14" cy="245.54" r="24.56"/>
    </g>
    <g id="Layer_27" data-name="Layer 27">
      <path class="cls-5" d="M517.83,404.19a4.45,4.45,0,0,1-1.25-.18L509.43,402a4.52,4.52,0,0,1-3.09-5.56l14.77-52.16,20.6-50.57c2-5,6.33-8.33,11.17-8.61a11.45,11.45,0,0,1,10.78,6.28h0a15.61,15.61,0,0,1,.36,13.77L540.6,356.32,522,401.4A4.51,4.51,0,0,1,517.83,404.19Z" transform="translate(0 0)"/>
    </g>
    <g id="Layer_26" data-name="Layer 26">
      <path class="cls-4" d="M591,266.14l-13.65.24a9.07,9.07,0,0,1-9.25-8.89,8.84,8.84,0,0,1,.36-2.7,20.41,20.41,0,0,0,.65-3,14.45,14.45,0,0,0,.09-3.35,4.95,4.95,0,0,0-9.55-1.41h0c-2.3,0-7.19-.72-9.48-.68-4.87-12.49,5.75-28.84,17.17-35,11.66-6.25,26.78.11,31.25,13.16,6.19.11,11.23,6.22,12,13.1s-2,14.07-6.36,19.34S594.24,266.08,591,266.14Z" transform="translate(0 0)"/>
    </g>
    <g id="Layer_25" data-name="Layer 25">
      <path class="cls-4" d="M546.14,577.66a4.51,4.51,0,0,1-4.46-4l-5.06-170.23L600.4,408l.05.41c14.42,120.66,9.49,162.43,9.44,162.84a4.5,4.5,0,0,1-4.75,4.23l-.33,0-14.09.34a4.5,4.5,0,0,1-4-4.3l-13.17-123.3a1.41,1.41,0,0,0-1.47-1,1.46,1.46,0,0,0-1.44,1.17L565.56,572a4.48,4.48,0,0,1-4,4.67l-14.93,1Z" transform="translate(0 0)"/>
    </g>
    <g id="Layer_24" data-name="Layer 24">
      <path class="cls-5" d="M572.61,423.76l-1.15,0c-18.34-.55-32.69-14.43-36.65-18.67a4.5,4.5,0,0,1-1.08-4.1l10.58-44.76-2.81-38.92A38.39,38.39,0,0,1,552,287.66a31.67,31.67,0,0,1,24.39-9.87c17.85.86,31.94,16.81,32.07,36.34.19,30.23-.7,32.31-1,33-8.91,20.8-4,50-2.34,58.44a4.53,4.53,0,0,1-1.34,4.19C594,419.05,583.51,423.76,572.61,423.76Z" transform="translate(0 0)"/>
    </g>
    <g id="Layer_23" data-name="Layer 23">
      <path class="cls-5" d="M618.67,412.38a4.5,4.5,0,0,1-4.38-3.5l-10.91-47.55L588.75,307a15.61,15.61,0,0,1,2.62-13.52A11.45,11.45,0,0,1,603,289c4.73,1.07,8.41,5,9.6,10.33l12,53.23,6,53.94a4.5,4.5,0,0,1-4,5l-7.4.85A4.41,4.41,0,0,1,618.67,412.38Z" transform="translate(0 0)"/>
    </g>
    <g id="Layer_22" data-name="Layer 22">
      <path class="cls-3" d="M30.83,417.51a10.75,10.75,0,0,0,2.79-14.94,10.54,10.54,0,0,0-1.21-1.46l4.17-93-21.21,2.38,1.23,91a10.8,10.8,0,0,0,14.23,16.05Z" transform="translate(0 0)"/>
    </g>
    <g id="Layer_21" data-name="Layer 21">
      <polygon class="cls-3" points="69.53 574.97 81.61 577.09 93.54 531.52 77.72 528.39 69.53 574.97"/>
    </g>
    <g id="Layer_20" data-name="Layer 20">
      <path class="cls-4" d="M102.92,592.39,65,585.72h0l2.57-14.66h0l23.29,4.09a14.88,14.88,0,0,1,12.08,17.24Z" transform="translate(0 0)"/>
    </g>
    <g id="Layer_19" data-name="Layer 19">
      <polygon class="cls-3" points="36.39 581.01 48.65 581.01 54.48 533.72 36.39 533.72 36.39 581.01"/>
    </g>
    <g id="Layer_18" data-name="Layer 18">
      <path class="cls-4" d="M72.3,592.39H33.77V577.51H57.41A14.89,14.89,0,0,1,72.3,592.39Z" transform="translate(0 0)"/>
    </g>
    <g id="Layer_17" data-name="Layer 17">
      <path class="cls-4" d="M88.54,568.06,88,568l-14.43-1.19a4.88,4.88,0,0,1-4.27-5.42,2,2,0,0,1,0-.24L82.62,486.5l-9-47.47a1.63,1.63,0,0,0-3.22.16L59.15,565.81a4.93,4.93,0,0,1-5.21,4.44l-13.6-.51a4.88,4.88,0,0,1-4.53-4.63l-.92-151.77,70.48-8.8,4.93,76,0,.08-17,83.67A4.89,4.89,0,0,1,88.54,568.06Z" transform="translate(0 0)"/>
    </g>
    <g id="Layer_16" data-name="Layer 16">
      <circle class="cls-3" cx="58.13" cy="223.26" r="24.56"/>
    </g>
    <g id="Layer_15" data-name="Layer 15">
      <path class="cls-6" d="M81.27,424.44a20.17,20.17,0,0,1-10.86-3.11C58.52,413.9,45,416.85,38,419.27a4.87,4.87,0,0,1-6.45-4L18.84,301.62c-2.13-19,9.34-36.94,27.27-42.56h0c.67-.21,1.36-.41,2-.6a39.56,39.56,0,0,1,33,5.72A40.2,40.2,0,0,1,98.3,293.53L109,407.92a4.84,4.84,0,0,1-1.52,4C103.73,415.4,92.83,424.44,81.27,424.44Z" transform="translate(0 0)"/>
    </g>
    <g id="Layer_14" data-name="Layer 14">
      <path class="cls-6" d="M42.53,326l-28.7-3.15a5.74,5.74,0,0,1-4.91-7.14l7.31-27.84a15.88,15.88,0,0,1,31.55,3.56l1.09,28.68a5.71,5.71,0,0,1-5.5,5.92,5.9,5.9,0,0,1-.84,0Z" transform="translate(0 0)"/>
    </g>
    <g id="Layer_13" data-name="Layer 13">
      <path class="cls-3" d="M108.9,413.52a10.74,10.74,0,0,0,1-15.16,9.93,9.93,0,0,0-1.37-1.3l-7.07-92.85-20.79,4.68,12.2,90.42a10.8,10.8,0,0,0,16.07,14.21Z" transform="translate(0 0)"/>
    </g>
    <g id="Layer_12" data-name="Layer 12">
      <path class="cls-6" d="M72.66,320.15a5.73,5.73,0,0,1-1.82-4.4l1.09-28.68a15.88,15.88,0,0,1,31.55-3.56l7.31,27.84a5.7,5.7,0,0,1-4.91,7.14l-28.7,3.15A5.7,5.7,0,0,1,72.66,320.15Z" transform="translate(0 0)"/>
    </g>
    <g id="Layer_11" data-name="Layer 11">
      <path class="cls-4" d="M56.67,248.74a5.7,5.7,0,0,1-1.3-.15l-.12,0c-21.6-3.3-26.37-15.81-27.42-21-1.08-5.4.15-10.62,2.94-12.65-1.52-4.8-1.27-9.06.73-12.66,3.5-6.28,11.08-8.41,12.1-8.67,6.06-4.47,13.3-1.48,14.62-.88,11.72-4.33,16.2-.72,17,.08,5.24.94,8.43,3,9.49,6,2,5.73-4.3,12.86-4.57,13.16l-.14.15-9.38.45a6.36,6.36,0,0,0-6,6.65,4.9,4.9,0,0,0,.07.67h0a28.36,28.36,0,0,0,1,3.35c1.6,5,2.8,9.29,1.25,10.91a2.51,2.51,0,0,1-2.62.46c-1.47-.39-2.47-.31-3,.24-.77.86-.54,3,.66,6.13a5.71,5.71,0,0,1-1,5.84A5.5,5.5,0,0,1,56.67,248.74Z" transform="translate(0 0)"/>
    </g>
    <g id="Layer_10" data-name="Layer 10">
      <path class="cls-1" d="M141,593.94H1a1,1,0,0,1,0-2H141a1,1,0,0,1,0,2Z" transform="translate(0 0)"/>
    </g>
    <g id="Layer_9" data-name="Layer 9">
      <path class="cls-1" d="M629,593.94H489a1,1,0,0,1,0-2H629a1,1,0,0,1,0,2Z" transform="translate(0 0)"/>
    </g>
    <g id="Layer_8" data-name="Layer 8">
      <path class="cls-2" d="M428.71,424h-242a35,35,0,0,1-35-35V35a35,35,0,0,1,35-35h242a35,35,0,0,1,35,35V389A35,35,0,0,1,428.71,424Z" transform="translate(0 0)"/>
    </g>
  </g>
  <g id="Line4">
    <path id="Line4-2" data-name="Line4" class="cls-1" d="M390.71,377h-166c-17-.08-17-25.91,0-26h166C407.66,351.11,407.75,376.94,390.71,377Z" transform="translate(0 0)"/>
  </g>
  <g id="Line3">
    <path id="Line3-2" data-name="Line3" class="cls-1" d="M390.71,329h-166c-17-.08-17-25.91,0-26h166C407.66,303.11,407.75,328.94,390.71,329Z" transform="translate(0 0)"/>
  </g>
  <g id="Line2">
    <path id="Line2-2" data-name="Line2" class="cls-1" d="M390.71,281h-166c-17-.08-17-25.91,0-26h166C407.66,255.11,407.75,280.94,390.71,281Z" transform="translate(0 0)"/>
  </g>
  <g id="Line1">
    <path id="Line1-2" data-name="Line1" class="cls-1" d="M390.71,73h-166c-17-.08-17-25.91,0-26h166C407.66,47.05,407.75,72.88,390.71,73Z" transform="translate(0 0)"/>
  </g>
  <g id="Screen">
    <path id="Screen-2" data-name="Screen" class="cls-6" d="M387.71,223.83h-160a16.52,16.52,0,0,1-16.5-16.5v-89.6a16.52,16.52,0,0,1,16.5-16.5h160a16.52,16.52,0,0,1,16.5,16.5v89.6A16.52,16.52,0,0,1,387.71,223.83Z" transform="translate(0 0)"/>
  </g>
  <g id="Outline">
    <path id="Outline-2" data-name="Outline" class="cls-7" d="M428.71,424h-242a35,35,0,0,1-35-35V35a35,35,0,0,1,35-35h242a35,35,0,0,1,35,35V389A35,35,0,0,1,428.71,424ZM186.71,6a29,29,0,0,0-29,29V389a29,29,0,0,0,29,29h242a29,29,0,0,0,29-29V35a29,29,0,0,0-29-29Z" transform="translate(0 0)"/>
  </g>
</svg>
